<svg width="83" height="83" viewBox="0 0 83 83" fill="none" xmlns="http://www.w3.org/2000/svg">
<path d="M79.2341 49.7216C79.662 46.7831 82.9999 44.7976 82.9999 41.7797C82.9999 38.8412 79.5764 36.7763 79.1485 33.6789C78.8061 30.9787 80.4323 28.1196 79.662 25.8958C78.7205 22.9573 74.6979 22.8779 73.0718 20.0982C71.8736 18.0333 71.9591 14.1418 70.5042 12.7122L70.4186 12.6328L65.4545 17.2391C66.3104 18.0333 67.1662 18.8275 67.8509 19.7805C68.878 18.5098 69.4771 16.9215 70.1618 15.3331C70.4186 20.1776 72.5583 23.1162 76.5809 24.3074C75.1259 24.7045 73.0718 24.3869 71.5312 24.7045C72.6438 26.8489 73.7565 28.9138 74.4412 31.3757C75.9818 30.4227 77.0944 29.152 78.4638 28.0401C76.8376 31.1375 77.5223 37.1734 80.6891 38.6029C79.4053 38.6029 77.6079 37.6499 76.1529 37.1734C75.8962 39.3971 76.4953 43.0504 75.9818 45.5124C77.6935 45.1153 79.3197 44.5593 80.8602 43.924C78.9773 45.7506 76.0673 50.8335 78.7206 54.4867C77.4367 54.0896 76.1529 52.263 74.8691 51.31C74.0988 53.6925 73.1574 55.8369 72.1303 58.0606C73.6709 58.2989 75.4682 58.3783 77.18 58.3783C73.7565 60.1255 70.5042 62.0316 71.0177 67.5909C70.0762 66.3202 69.4771 64.7318 68.7924 63.1434C66.7383 64.6524 65.4545 66.9556 63.1436 68.3057C64.513 69.2587 66.2248 69.8941 67.8509 70.6088C62.9725 70.9265 59.7201 72.912 58.6075 76.8035C58.3507 75.2946 58.3507 73.5474 58.2651 71.8795C55.9543 72.9914 53.5578 74.1827 50.819 74.8975C51.8461 76.327 53.0443 77.5183 54.2425 78.789C51.0758 77.2006 45.1703 77.7566 43.3729 80.7745C43.2873 79.5038 44.4856 77.836 44.8279 76.327C42.8594 76.1682 39.0935 76.6447 36.8683 76.1682C37.2962 77.836 37.8953 79.4244 38.4944 80.9333C36.6115 78.9479 31.3051 76.4859 27.3681 78.8684C28.4807 77.5977 29.6789 76.4064 30.7916 75.1357C28.4807 74.3415 26.0842 73.5474 24.0301 72.5149C24.0301 74.2621 23.6878 75.6123 23.859 77.4389C21.8905 74.3415 19.9219 71.1648 14.1876 71.6413C15.7282 70.8471 17.1831 70.1323 18.8949 69.497C17.7823 68.3851 16.584 67.4321 15.4714 66.3996L10.5073 71.0059C10.5073 71.0059 10.5073 71.0854 10.5929 71.0854C12.2191 72.6737 16.0705 72.1972 18.3814 73.5474C20.6066 74.8181 21.4625 79.0273 24.3725 79.9009C26.6834 80.5362 28.9086 78.8684 32.3321 79.345C35.2421 79.7421 37.4674 83.0777 40.5485 82.9982C43.8009 82.9982 45.5126 79.6626 48.8505 79.2655C51.5037 78.9479 54.7561 80.4568 56.8102 79.7421C59.4634 78.8684 60.0625 74.8181 62.8013 73.3885C65.0266 72.1972 69.0492 72.1972 70.4186 70.9265C71.8736 69.497 71.788 65.6054 72.9006 63.5405C74.5268 60.6814 78.635 60.3638 79.4053 57.3458C80.3467 55.2015 78.8917 52.3424 79.2341 49.7216Z" fill="#221E1E"/>
<path d="M14.9579 63.382C14.0165 64.7321 13.4174 66.4794 12.6471 67.9883C12.4759 63.0643 10.3362 60.0464 6.22803 59.014C7.7686 58.6963 9.48035 58.6169 11.2777 58.6169C10.593 56.7108 8.88124 54.2488 8.36771 51.5486C6.91273 51.7074 5.37215 54.1694 4.17393 54.5665C6.48479 50.9132 4.43069 45.5921 2.11983 43.9243C3.6604 44.4008 5.11539 45.0362 6.65596 45.5127C6.82714 43.289 6.3992 39.5563 6.82714 37.0148C5.11539 37.4119 3.6604 37.9679 2.11983 38.4444C1.77748 37.7296 2.9757 37.4119 3.57481 36.6972C5.20098 34.7117 5.88568 30.979 4.25951 27.8816C5.54333 28.9935 6.65596 30.2642 8.11095 31.2172C8.96682 28.7552 9.8227 26.3727 11.1921 24.3078C9.56594 23.9901 7.59743 24.0695 5.88568 23.8313C9.48035 22.2429 12.6471 20.2574 12.2192 14.7775C13.1606 16.1276 13.7597 17.8748 14.4444 19.5426C16.0706 17.716 17.7823 15.9688 19.6653 14.3804C18.2103 13.5068 16.5841 12.792 14.9579 12.0772C20.0932 11.9978 23.1743 9.93289 24.3726 6.04135C24.8861 7.31206 24.287 9.69463 24.7149 10.9653C26.9402 9.85347 29.1655 8.82102 31.8187 8.10625C30.9628 6.51787 29.4222 5.64426 28.5664 4.05587C32.0754 6.12077 37.8954 4.92948 39.436 2.07039C39.3504 3.3411 38.3233 5.24716 37.8098 6.67671C39.7783 6.83554 43.5442 6.35903 45.7694 6.83554C45.7694 5.406 44.828 3.49994 44.3145 2.07039C46.1118 3.97645 51.4182 6.75612 55.1841 4.13529C54.7561 5.32658 52.8732 6.59729 51.9317 7.86799C54.3282 8.82102 56.9814 9.5358 59.0355 10.8859C59.549 9.45638 59.4634 7.55032 59.549 5.72367C61.2608 9.1387 63.1437 12.3155 68.8781 11.9184C67.5943 12.8714 65.8825 13.5068 64.1708 14.0627C64.8555 14.698 65.5402 15.3334 66.2249 15.8893L71.1033 11.3624C69.2204 10.4888 65.9681 10.4888 64.0852 9.45638C61.0896 7.78857 61.2608 3.89703 57.9229 3.10284C55.6976 2.54691 52.9588 4.05587 50.1344 3.65878C46.6253 3.18226 44.9992 -0.153346 41.7468 0.00549194C38.6657 0.0849112 36.9539 3.3411 33.616 3.73819C30.5349 4.13529 28.224 2.54691 25.8276 3.26168C23.0032 4.05587 22.2329 8.26509 19.6653 9.61522C17.6112 10.7271 13.5886 10.5682 12.048 12.0772C10.593 13.5068 10.8497 17.5571 9.56594 19.7015C7.93978 22.4811 3.83158 22.64 3.06129 25.7373C2.46218 28.1199 4.00275 30.5819 3.6604 33.3616C3.14688 37.0148 -0.533385 38.6032 0.0657274 42.0183C0.579252 45.2744 3.40364 46.4657 3.74599 49.6425C4.00275 52.1839 2.37659 54.6459 3.23246 57.2667C4.08834 59.8876 8.36771 60.6818 9.8227 63.0643C10.9353 65.0498 10.8498 67.9883 11.8768 69.7356L16.7553 65.2087C15.985 64.6527 15.4715 64.0174 14.9579 63.382Z" fill="#221E1E"/>
<path d="M40.5485 69.3377C31.5618 69.3377 25.2284 65.7638 21.2913 62.5871C21.0346 62.3488 20.7778 62.19 20.5211 61.9517L20.1787 61.634L21.4625 60.4427L21.8049 60.681C22.0616 60.8398 22.2328 61.0781 22.4896 61.2369C28.3951 66.0021 35.3277 68.1464 43.0306 67.511C50.5623 66.8757 56.3822 64.1754 61.3463 58.9338C66.4815 53.4538 68.878 46.862 68.1933 39.8732C67.5942 32.9637 64.5986 27.2455 59.2922 22.798L58.9498 22.4804L60.2337 21.2891L60.576 21.5273C66.0536 26.1336 69.3059 32.3283 69.905 39.5555C70.7609 49.0858 66.396 55.8364 62.6301 59.8868C57.4949 65.4461 51.0758 68.3847 43.1162 69.02C42.3459 69.3377 41.49 69.3377 40.5485 69.3377ZM21.4625 61.7134C21.6337 61.8723 21.7193 61.9517 21.8905 62.1105C26.0842 65.4461 33.1024 69.3377 43.2017 68.5435C50.9046 67.9081 57.0669 65.049 62.1166 59.6485C65.7968 55.757 69.9906 49.0858 69.1348 39.8732C68.5356 32.8843 65.5401 27.0867 60.3192 22.5598L60.2337 22.6392C65.4545 27.1661 68.4501 32.9637 69.0492 39.9526C69.6483 47.1797 67.2518 53.9304 61.9454 59.5691C56.9813 64.9696 50.9902 67.8287 43.1162 68.3847C35.1565 69.02 28.0528 66.7963 21.8905 61.8723C21.8049 61.8723 21.7193 61.7134 21.4625 61.7134Z" fill="#221E1E"/>
<path d="M21.6339 60.998L21.2916 60.6803C17.8681 57.5035 13.5887 51.8648 12.904 43.4463C12.3049 35.8221 14.7869 28.9126 20.3501 22.9562C23.2601 19.8588 29.5936 14.5377 39.8641 13.7435C47.9093 13.1876 55.1842 15.4113 61.5177 20.4148L61.8601 20.7324L60.5763 21.9237L60.2339 21.606C54.3284 16.9203 47.567 14.8554 40.0353 15.3319C36.5262 15.5702 32.8459 16.6026 29.4224 18.2704C19.3231 23.1944 13.7599 32.4865 14.7014 43.2081C15.3861 51.2294 19.4087 56.4711 22.661 59.489L23.0033 59.8067L21.6339 60.998ZM14.1022 36.4574C13.6743 38.6812 13.5887 40.9843 13.7599 43.3669C14.4446 51.3088 18.3816 56.7093 21.6339 59.8861L21.7195 59.8067C18.4672 56.7093 14.5302 51.3088 13.8455 43.2875C13.6743 40.9843 13.7599 38.6812 14.1022 36.4574ZM42.3461 14.5377C49.0219 14.5377 55.0987 16.6821 60.4907 20.8119L60.5763 20.7324C54.4995 16.0467 47.567 13.9818 39.9497 14.5377C32.8459 15.0143 27.6251 17.8733 24.2016 20.5736C25.6566 19.4617 27.2827 18.5087 29.0801 17.6351C32.5891 15.8879 36.355 14.8554 40.0353 14.6172C40.72 14.5377 41.5758 14.5377 42.3461 14.5377Z" fill="#221E1E"/>
<path d="M17.012 64.8129C10.0794 58.38 6.14239 49.485 6.39915 40.4312C6.7415 27.7242 14.9579 16.129 27.4537 10.8873C40.1206 5.5662 55.0984 7.55168 65.6257 16.0495L65.0266 16.6055C54.9273 8.4253 39.9494 6.43982 27.7104 11.5226C15.557 16.6055 7.51179 27.9624 7.16944 40.3518C6.91268 49.2468 10.6785 57.9035 17.5255 64.1776L17.012 64.8129Z" fill="#221E1E"/>
<path d="M40.891 75.0562C31.9043 75.0562 22.9177 71.9588 16.1562 66.0024L16.7554 65.4464C27.7106 75.0562 44.4857 77.0417 57.5806 70.291C69.3061 64.2552 76.4098 52.3423 75.6396 39.9529C75.126 31.8521 71.189 23.9102 64.7699 18.3509L65.3691 17.7949C71.9593 23.5131 75.9819 31.6139 76.4954 39.9529C77.2657 52.66 70.0764 64.8905 58.0085 71.0058C52.7021 73.706 46.7966 75.0562 40.891 75.0562Z" fill="#221E1E"/>
<path d="M54.0714 38.1257C53.5579 39.4758 52.7876 40.6671 51.7606 41.6996C50.8191 42.732 49.6209 43.6056 48.3371 44.241C47.0533 44.8763 45.5983 45.194 43.9721 45.194C43.0306 45.194 42.0036 45.0352 40.9765 44.7969C40.891 44.7969 40.8054 44.7175 40.8054 44.5587C40.8054 44.3998 40.891 44.3998 40.9765 44.3998C41.1477 44.3998 41.4045 44.4792 41.5757 44.4792C41.7468 44.4792 42.0036 44.4792 42.1748 44.4792C43.5442 44.4792 44.7424 44.241 45.7694 43.8439C46.7965 43.4468 47.738 42.8909 48.5082 42.1761C49.2785 41.4613 49.7921 40.5877 50.22 39.5553C50.6479 38.5228 50.8191 37.4109 50.8191 36.2196C50.8191 35.1078 50.6479 34.0753 50.3056 32.9635C49.9632 31.8516 49.4497 30.8986 48.6794 30.0249C47.9947 29.1513 47.1388 28.4366 46.1118 27.8806C45.0847 27.3247 43.9721 27.0864 42.6883 27.0864C41.4901 27.0864 40.2918 27.3247 39.008 27.8806V56.4715C39.008 57.9805 39.3504 59.013 40.0351 59.7277C40.7198 60.3631 41.918 60.7602 43.5442 60.8396C43.6298 60.8396 43.7153 60.919 43.7153 60.9984C43.7153 61.0779 43.6298 61.1573 43.5442 61.1573H35.6701C34.8998 61.1573 34.1295 61.1573 33.2737 61.1573C32.5034 61.1573 31.7331 61.1573 30.8772 61.0779C30.7916 61.0779 30.706 60.9984 30.706 60.919C30.706 60.8396 30.706 60.7602 30.8772 60.6808C31.7331 60.5219 32.4178 60.3631 32.8457 60.1248C33.3593 59.8866 33.7016 59.5689 33.8728 59.2512C34.044 58.8541 34.2151 58.457 34.2151 57.9011C34.2151 57.3452 34.3007 56.7098 34.3007 55.995V29.469C34.3007 28.9925 34.1295 28.516 33.8728 28.1189C33.616 27.7218 33.2737 27.4041 32.9313 27.0864C32.589 26.7688 32.161 26.5305 31.6475 26.2922C31.134 26.054 30.706 25.8951 30.2781 25.8157C30.1925 25.8157 30.1069 25.7363 30.1069 25.6569C30.1069 25.5775 30.1925 25.498 30.2781 25.498C31.6475 25.5775 32.9313 25.5775 34.3007 25.6569C35.6701 25.6569 36.9539 25.7363 38.2377 25.7363H44.6568C46.1974 25.7363 47.5668 25.8951 48.8506 26.1334C50.1344 26.3717 51.1615 26.8482 52.0173 27.4835C52.8732 28.1189 53.5579 28.9925 54.0714 30.0249C54.585 31.0574 54.7561 32.4075 54.7561 34.0753C54.9273 35.4254 54.6705 36.7756 54.0714 38.1257Z" fill="#221E1E"/>
</svg>
